<svg width="24" height="14" viewBox="0 0 24 14" fill="none" xmlns="http://www.w3.org/2000/svg">
<path d="M7.84893 1.96955L3.61853 6.20155L22.4825 6.20155C22.6947 6.20155 22.8982 6.28583 23.0482 6.43586C23.1982 6.58589 23.2825 6.78938 23.2825 7.00155C23.2825 7.21372 23.1982 7.41721 23.0482 7.56723C22.8982 7.71726 22.6947 7.80155 22.4825 7.80155L3.61053 7.80155L7.85053 12.0384C8.00075 12.1886 8.08514 12.3923 8.08514 12.6048C8.08514 12.8172 8.00075 13.0209 7.85053 13.1712C7.70031 13.3214 7.49657 13.4058 7.28413 13.4058C7.07169 13.4058 6.86795 13.3214 6.71773 13.1712L1.13373 7.58715L1.11773 7.57115C0.967257 7.4204 0.882679 7.21615 0.882532 7.00315L0.882532 7.00155C0.88238 6.88442 0.907952 6.76868 0.95744 6.66251C1.00693 6.55635 1.07913 6.46235 1.16893 6.38715L6.71773 0.838347C6.79153 0.761938 6.87981 0.700992 6.97741 0.659065C7.07501 0.617138 7.17999 0.595069 7.28621 0.594147C7.39243 0.593224 7.49778 0.613465 7.5961 0.65369C7.69441 0.693914 7.78373 0.753316 7.85885 0.82843C7.93396 0.903545 7.99336 0.992867 8.03359 1.09118C8.07381 1.1895 8.09406 1.29484 8.09313 1.40107C8.09221 1.50729 8.07014 1.61227 8.02821 1.70987C7.98629 1.80747 7.92534 1.89575 7.84893 1.96955Z" fill="white"/>
</svg>
