<svg width="23" height="14" viewBox="0 0 23 14" fill="none" xmlns="http://www.w3.org/2000/svg">
<path d="M16.0195 1.96955L20.2499 6.20155L1.38594 6.20155C1.17376 6.20155 0.970281 6.28583 0.820252 6.43586C0.670223 6.58589 0.585937 6.78938 0.585937 7.00155C0.585937 7.21372 0.670223 7.41721 0.820252 7.56723C0.970281 7.71726 1.17376 7.80155 1.38594 7.80155L20.2579 7.80155L16.0179 12.0384C15.8677 12.1886 15.7833 12.3923 15.7833 12.6048C15.7833 12.8172 15.8677 13.0209 16.0179 13.1712C16.1682 13.3214 16.3719 13.4058 16.5843 13.4058C16.7968 13.4058 17.0005 13.3214 17.1507 13.1712L22.7347 7.58715L22.7507 7.57115C22.9012 7.4204 22.9858 7.21615 22.9859 7.00315L22.9859 7.00155C22.9861 6.88442 22.9605 6.76868 22.911 6.66251C22.8615 6.55635 22.7893 6.46235 22.6995 6.38715L17.1507 0.838347C17.0769 0.761938 16.9887 0.700992 16.8911 0.659065C16.7935 0.617138 16.6885 0.595069 16.5823 0.594147C16.476 0.593224 16.3707 0.613465 16.2724 0.65369C16.1741 0.693914 16.0847 0.753316 16.0096 0.82843C15.9345 0.903545 15.8751 0.992867 15.8349 1.09118C15.7947 1.1895 15.7744 1.29484 15.7753 1.40107C15.7763 1.50729 15.7983 1.61227 15.8403 1.70987C15.8822 1.80747 15.9431 1.89575 16.0195 1.96955Z" fill="white"/>
</svg>
