<svg width="10" height="10" viewBox="0 0 10 10" fill="none" xmlns="http://www.w3.org/2000/svg">
<g clip-path="url(#clip0_200_281)">
<path d="M3.04872 0.133168L7.59417 4.67874C7.67942 4.76396 7.72729 4.87959 7.72729 5.00014C7.72729 5.12071 7.67939 5.23632 7.59414 5.32156L3.04869 9.86689C2.87117 10.0444 2.58339 10.0444 2.40587 9.86689C2.22839 9.68941 2.22836 9.40159 2.40587 9.22408L6.6299 5.00014L2.40587 0.775986C2.31711 0.687228 2.27275 0.570895 2.27275 0.454562C2.27275 0.338229 2.31711 0.221895 2.4059 0.133138C2.58342 -0.0443469 2.8712 -0.0443469 3.04872 0.133168Z" fill="black"/>
</g>
<defs>
<clipPath id="clip0_200_281">
<rect width="10" height="10" fill="white" transform="matrix(1.19249e-08 -1 -1 -1.19249e-08 10 10)"/>
</clipPath>
</defs>
</svg>
