<svg width="43" height="44" viewBox="0 0 43 44" fill="none" xmlns="http://www.w3.org/2000/svg">
<path d="M7.06836 31.0341C7.06836 32.535 7.59751 33.805 8.65583 34.844C9.71414 35.8831 10.9937 36.4123 12.4946 36.4315H30.534C32.0156 36.4315 33.2856 35.9024 34.3439 34.844C35.4022 33.7857 35.9314 32.5158 35.9314 31.0341V12.9947C35.9314 11.821 35.5946 10.7723 34.9212 9.84867C34.2477 8.92505 33.3818 8.28045 32.3235 7.91485V10.2816C32.3235 11.0321 32.0637 11.6767 31.5442 12.2154C31.0247 12.7542 30.3801 13.014 29.6104 12.9947C28.8407 12.9755 28.2057 12.7157 27.7054 12.2154C27.2051 11.7151 26.9454 11.0705 26.9261 10.2816V7.56849H16.1025V10.2816C16.1025 11.0321 15.8331 11.6767 15.2943 12.2154C14.7555 12.7542 14.1206 13.014 13.3894 12.9947C12.6582 12.9755 12.0136 12.7157 11.4555 12.2154C10.8975 11.7151 10.6378 11.0705 10.6762 10.2816V7.91485C9.61793 8.29969 8.75204 8.9443 8.07856 9.84867C7.40509 10.753 7.06836 11.8017 7.06836 12.9947L7.06836 31.0341ZM10.6762 31.0341V16.6026H32.3235V31.0341C32.3235 31.5344 32.1503 31.9577 31.804 32.3041C31.4576 32.6505 31.0343 32.8236 30.534 32.8236H12.4946C11.9943 32.8236 11.5614 32.6505 11.1958 32.3041C10.8302 31.9577 10.657 31.5344 10.6762 31.0341ZM12.4946 10.2816C12.4946 10.5318 12.5812 10.7434 12.7544 10.9166C12.9276 11.0898 13.1392 11.1764 13.3894 11.1764C13.6395 11.1764 13.8512 11.0898 14.0243 10.9166C14.1975 10.7434 14.2841 10.5318 14.2841 10.2816V7.56849H12.4946V10.2816ZM14.2841 29.2158H17.892V25.6079H14.2841V29.2158ZM14.2841 23.8184H17.892V20.2105H14.2841V23.8184ZM19.7104 29.2158H23.3182V25.6079H19.7104V29.2158ZM19.7104 23.8184H23.3182V20.2105H19.7104V23.8184ZM25.1077 29.2158H28.7156V25.6079H25.1077V29.2158ZM25.1077 23.8184H28.7156V20.2105H25.1077V23.8184ZM28.7156 10.2816C28.7156 10.5318 28.8022 10.7434 28.9754 10.9166C29.1486 11.0898 29.3602 11.1764 29.6104 11.1764C29.8605 11.1764 30.0722 11.0898 30.2454 10.9166C30.4185 10.7434 30.5147 10.5318 30.534 10.2816V7.56849H28.7156V10.2816Z" fill="white"/>
</svg>
