<svg width="14" height="14" viewBox="0 0 14 14" fill="none" xmlns="http://www.w3.org/2000/svg">
<mask id="mask0_67_2347" style="mask-type:luminance" maskUnits="userSpaceOnUse" x="1" y="1" width="12" height="12">
<path d="M12.1858 6.01036C12.2597 5.51437 12.2349 5.00867 12.1129 4.52228C11.9464 3.85762 11.6021 3.25084 11.1169 2.76703C10.6331 2.28173 10.0263 1.9373 9.36162 1.77069C8.8752 1.64883 8.36951 1.62415 7.87354 1.69807M9.97208 5.77586C10.0128 5.50514 9.98939 5.22864 9.90367 4.96864C9.81795 4.70864 9.67234 4.47242 9.47858 4.27903C9.28515 4.08531 9.04892 3.93976 8.78892 3.85409C8.52892 3.76842 8.25244 3.74503 7.98174 3.78582" stroke="white" stroke-linecap="round" stroke-linejoin="round"/>
<path d="M4.19298 2.56488C4.29703 2.56493 4.39917 2.59282 4.48881 2.64564C4.57846 2.69846 4.65235 2.7743 4.70281 2.8653L5.41652 4.15038C5.46257 4.23331 5.4877 4.32622 5.48973 4.42106C5.49176 4.5159 5.47064 4.6098 5.42818 4.69463L4.74073 6.06926C4.74073 6.06926 4.93993 7.09359 5.77352 7.92717C6.60739 8.76076 7.62823 8.95676 7.62823 8.95676L9.00256 8.2693C9.08745 8.22684 9.18142 8.20573 9.27631 8.20782C9.37121 8.2099 9.46416 8.23511 9.5471 8.28125L10.8363 8.99788C10.9271 9.04846 11.0028 9.12239 11.0554 9.21203C11.1081 9.30167 11.1358 9.40375 11.1358 9.50771V10.9876C11.1358 11.741 10.4358 12.2855 9.72181 12.0443C8.25531 11.5497 5.97914 10.6073 4.53598 9.16471C3.09339 7.72184 2.15131 5.44538 1.65635 3.97888C1.41543 3.26488 1.95968 2.56488 2.71335 2.56488H4.19298Z" fill="white" stroke="white" stroke-linejoin="round"/>
</mask>
<g mask="url(#mask0_67_2347)">
<path d="M0 0H14V14H0V0Z" fill="white"/>
</g>
</svg>
