<svg width="170" height="42" viewBox="0 0 170 42" fill="none" xmlns="http://www.w3.org/2000/svg">
<path d="M21.0888 8.96298C21.0888 13.9259 25.1852 17.926 30.2677 17.926C35.3503 17.926 39.4467 13.9259 39.4467 8.96298C39.3708 4.00001 35.3503 0 30.2677 0C25.1852 0 21.0888 4.00001 21.0888 8.96298Z" fill="white"/>
<path d="M0.455154 17.778H0V0.518677H17.6751V0.963122C8.57207 1.85201 1.2896 8.88906 0.455154 17.778Z" fill="white"/>
<path d="M0.455154 21.1853H0V38.4446H17.6751V38.0001C8.57207 37.1853 1.2896 30.0742 0.455154 21.1853Z" fill="white"/>
<path d="M38.3846 21.1853H38.8398V38.4446H21.1647V38.0001C30.2677 37.1853 37.5502 30.0742 38.3846 21.1853Z" fill="white"/>
<path d="M98.8443 25.3335H96.4168V37.1113H98.8443V25.3335Z" fill="white"/>
<path d="M166.966 35.0371C166.966 35.0371 166.89 35.0371 166.738 35.0371C165.752 35.0371 165.145 34.963 164.614 34.5185C164.235 34.0741 164.159 33.3334 164.159 32.1482V27.4074H166.966V25.3333H164.159V21.7778H161.731V32.2222C161.731 34.6667 162.187 35.8519 163.173 36.5185C164.083 37.1111 165.297 37.1852 166.738 37.1852C166.89 37.1852 166.966 37.1852 166.966 37.1852V35.0371Z" fill="white"/>
<path d="M94.9754 35.037H94.5962C93.9893 35.037 93.6858 34.9629 93.3824 34.5925C93.0031 34.074 93.079 32.8147 93.079 31.3333V19.4814H90.6515V31.3333C90.6515 33.6296 90.6515 35.111 91.4101 36.074C92.1687 37.111 93.1548 37.1851 94.7479 37.1851H94.9754V35.037Z" fill="white"/>
<path d="M64.3284 29.6296C64.3284 27.1852 63.6457 24.9629 62.3561 23.4814C60.763 21.5555 58.7148 20.6666 56.2874 20.6666C53.8599 20.6666 51.7358 21.5555 50.1428 23.4814C48.8532 24.9629 48.2463 27.1852 48.2463 29.6296C48.2463 32.2222 49.0049 34.1481 50.5221 35.7037C51.2807 36.5185 52.3427 37.2592 53.5564 37.8518C56.5908 39.3333 60.3837 41.3333 61.5975 42L62.963 39.8518C62.2044 39.4815 60.0803 38.5185 59.4734 38.2222C58.9424 38 58.5631 37.8518 58.5631 37.8518C58.7907 37.8518 59.3217 37.6296 59.4734 37.5555C62.8112 36.3704 64.3284 33.4815 64.3284 29.6296ZM56.2874 23.2592C58.108 23.2592 59.3217 23.9259 60.3837 25.3333C61.1423 26.2963 61.4458 27.8518 61.4458 29.6296C61.4458 31.5555 61.0665 33.1111 60.1562 34.1481C59.0941 35.4074 57.9563 36 56.2874 36C54.6943 36 53.4806 35.4815 52.4186 34.1481C51.5082 33.037 51.0531 31.4074 51.0531 29.6296C51.0531 27.8518 51.4324 26.3703 52.1151 25.4074C53.253 23.9259 54.5426 23.2592 56.2874 23.2592Z" fill="white"/>
<path d="M152.097 35.852V37.1113H154.449V25.3335H152.021V31.7039C151.946 33.0372 151.794 33.852 151.187 34.3705C150.656 34.815 149.897 35.1854 149.063 35.1854C148.228 35.1854 147.622 34.8891 147.242 34.3705C146.711 33.7039 146.711 32.5928 146.711 31.4817V25.4076H144.284V31.4076C144.284 33.2594 144.436 34.815 145.27 35.9261C146.029 36.8891 147.166 37.4076 148.759 37.4076C150.125 37.3335 151.339 36.7409 152.097 35.852Z" fill="white"/>
<path d="M125.091 26.5926V25.3333H122.74V37.1111H125.167V30.7407C125.167 29.4815 125.471 28.6666 126.002 28.0741C126.533 27.5555 127.291 27.2592 128.126 27.2592C128.96 27.2592 129.567 27.5555 129.946 28.0741C130.477 28.7407 130.477 29.8518 130.477 31.037V37.1111H132.905V31.1111C132.905 29.2592 132.753 27.7037 131.919 26.5926C131.16 25.6296 130.022 25.1111 128.429 25.1111C127.064 25.1111 125.85 25.7037 125.091 26.5926Z" fill="white"/>
<path d="M86.2517 25.3332V26.5925H86.1758C85.4931 25.7777 84.431 25.0369 82.838 25.0369C81.3208 25.0369 80.1071 25.5554 79.1209 26.5184C77.9072 27.6295 77.3762 29.3332 77.3762 31.1851C77.3762 33.0369 77.983 34.7407 79.1209 35.8518C80.1071 36.8147 81.3208 37.3332 82.838 37.3332C84.3552 37.3332 85.4931 36.5925 86.1758 35.7777H86.2517V37.037H88.6791V31.111V25.1851H86.2517V25.3332ZM85.1896 34.2221C84.5828 34.8888 83.7483 35.111 82.9139 35.111C82.0794 35.111 81.3208 34.8147 80.714 34.1481C80.1071 33.4814 79.7278 32.3703 79.7278 31.2592C79.7278 30.148 80.0312 29.0369 80.714 28.3703C81.3208 27.7036 82.0794 27.4073 82.9139 27.4073C83.7483 27.4073 84.5828 27.7036 85.1896 28.2962C85.9482 29.111 86.1758 30.074 86.1758 31.2592C86.2517 32.4443 86.0241 33.4073 85.1896 34.2221Z" fill="white"/>
<path d="M160.973 35.037H160.593C159.987 35.037 159.683 34.9629 159.38 34.5925C159 34.074 159.076 32.8147 159.076 31.3333V19.4814H156.649V31.3333C156.649 33.6296 156.649 35.111 157.407 36.074C158.166 37.111 159.152 37.1851 160.745 37.1851H160.973V35.037Z" fill="white"/>
<path d="M106.43 35.1111C105.368 35.1111 104.534 34.7407 103.927 34.1481C103.244 33.4074 102.865 32.2963 102.865 31.1852C102.865 30.0741 103.244 28.9629 103.927 28.2222C104.534 27.5555 105.292 27.2592 106.43 27.2592C107.34 27.2592 107.947 27.4815 108.858 28.2222L110.071 26.3703C109.009 25.4815 107.796 25.1111 106.354 25.1111C104.761 25.1111 103.396 25.5555 102.258 26.5926C101.12 27.7037 100.513 29.4074 100.513 31.2592C100.513 33.1111 101.12 34.7407 102.258 35.9259C103.396 37.037 104.761 37.4074 106.354 37.4074C107.796 37.4074 108.934 37.037 110.071 36.1481L108.858 34.2963C108.023 34.8889 107.34 35.1111 106.43 35.1111Z" fill="white"/>
<path d="M73.7349 35.852V37.1113H76.0866V25.3335H73.5832V31.7039C73.5832 32.9631 73.2798 33.778 72.7488 34.3705C72.2178 34.8891 71.4592 35.1854 70.6247 35.1854C69.7903 35.1854 69.1834 34.8891 68.8041 34.3705C68.2731 33.7039 68.2731 32.5928 68.2731 31.4076V25.3335H65.8456V31.3335C65.8456 33.1854 65.9973 34.7409 66.8318 35.852C67.5904 36.815 68.7282 37.3335 70.3213 37.3335C71.7626 37.3335 72.9763 36.7409 73.7349 35.852Z" fill="white"/>
<path d="M138.594 32.2964C140.112 32.8149 140.794 33.1853 140.794 34.0001C140.794 34.7408 140.187 35.3334 138.746 35.3334C137.532 35.3334 136.47 34.8149 135.484 33.926L134.27 35.5556C135.56 36.7408 137.077 37.3334 138.67 37.3334C141.78 37.3334 143.07 35.7779 143.07 33.8519C143.07 31.6297 141.477 30.889 139.353 30.1482C137.912 29.6297 136.926 29.3334 136.926 28.5186C136.926 27.7778 137.684 27.2593 138.898 27.2593C139.884 27.2593 140.718 27.4815 141.629 28.2223L142.843 26.5927C141.629 25.5556 140.339 25.1852 138.822 25.1852C136.85 25.1852 134.574 26.1482 134.574 28.6667C134.574 30.963 136.622 31.6297 138.594 32.2964Z" fill="white"/>
<path d="M170 22.0742C170 22.889 169.317 23.6298 168.407 23.6298C167.572 23.6298 166.814 22.9631 166.814 22.0742C166.814 21.2594 167.497 20.5187 168.407 20.5187C169.317 20.5187 170 21.2594 170 22.0742ZM169.772 22.0742C169.772 21.3335 169.241 20.7409 168.483 20.7409C167.724 20.7409 167.193 21.3335 167.193 22.0742C167.193 22.815 167.724 23.4076 168.483 23.4076C169.166 23.4076 169.772 22.815 169.772 22.0742ZM168.635 21.2594C169.014 21.2594 169.166 21.4076 169.166 21.7039C169.166 21.9261 169.09 22.0002 168.938 22.0742L169.166 22.7409H168.862L168.635 22.0742H168.104V22.7409H167.876V21.1853H168.635V21.2594ZM168.559 22.0002C168.786 22.0002 168.862 21.9261 168.862 21.7779C168.862 21.6298 168.786 21.5557 168.559 21.5557H168.104V22.0002H168.559Z" fill="white"/>
<path d="M119.705 26.5185C118.719 25.6296 117.278 25.1111 115.913 25.1111C114.547 25.1111 113.106 25.6296 112.12 26.5185C110.83 27.6296 110.223 29.3333 110.223 31.2592C110.223 33.1852 110.906 34.8889 112.12 36C113.106 36.8889 114.547 37.4074 115.913 37.4074C117.278 37.4074 118.719 36.8889 119.705 36C120.995 34.8889 121.602 33.1852 121.602 31.2592C121.678 29.3333 120.995 27.6296 119.705 26.5185ZM118.264 34.2222C117.657 34.8889 116.899 35.2592 115.913 35.2592C114.926 35.2592 114.168 34.963 113.561 34.2222C112.954 33.4815 112.575 32.3704 112.575 31.2592C112.575 30.1481 112.878 29.037 113.561 28.2963C114.168 27.6296 114.926 27.2592 115.913 27.2592C116.899 27.2592 117.657 27.5555 118.264 28.2963C118.871 29.037 119.25 30.1481 119.25 31.2592C119.25 32.3704 118.871 33.4074 118.264 34.2222Z" fill="white"/>
<path d="M91.7135 15.2592V16.5185H94.0651V4.74066H91.6377V11.111C91.6377 12.3703 91.3342 13.1851 90.8032 13.7777C90.2722 14.2962 89.5136 14.5925 88.6792 14.5925C87.8447 14.5925 87.2378 14.2962 86.8586 13.7777C86.3275 13.111 86.3275 11.9999 86.3275 10.8147V4.74066H83.9001V10.7407C83.9001 12.5925 84.0518 14.1481 84.8862 15.2592C85.6448 16.2222 86.7827 16.7407 88.3757 16.7407C89.7412 16.7407 90.9549 16.1481 91.7135 15.2592Z" fill="white"/>
<path d="M111.285 9.62982C111.285 8.88908 111.74 8.00019 112.12 7.55574C112.575 7.03722 113.257 6.66685 114.168 6.66685C115.154 6.66685 115.837 7.03722 116.292 7.62982C116.671 8.07426 116.975 8.88908 116.975 9.62982H111.285ZM117.809 6.07426C116.899 5.11129 115.609 4.59277 114.244 4.59277C112.878 4.59277 111.74 5.03722 110.754 5.92611C109.54 7.03722 108.934 8.815 108.934 10.6669C108.934 12.5187 109.54 14.2224 110.678 15.3335C111.664 16.2965 112.954 16.7409 114.471 16.7409C115.913 16.7409 117.657 16.2224 118.871 14.9632L117.506 13.4817C116.747 14.1483 115.685 14.5928 114.547 14.5928C113.637 14.5928 112.802 14.2965 112.271 13.7039C111.74 13.1854 111.437 12.3706 111.361 11.4817H119.326C119.402 9.25945 119.023 7.40759 117.809 6.07426Z" fill="white"/>
<path d="M80.5622 5.92603C79.5761 5.03714 78.1347 4.51862 76.7693 4.51862C75.328 4.51862 73.9625 5.03714 72.9763 5.92603C71.6867 7.03714 71.0799 8.74084 71.0799 10.6668C71.0799 12.5186 71.7626 14.2964 72.9763 15.4075C73.9625 16.2964 75.4038 16.8149 76.7693 16.8149C78.2106 16.8149 79.5761 16.2964 80.5622 15.4075C81.8518 14.2964 82.4587 12.5927 82.4587 10.6668C82.4587 8.74084 81.776 7.03714 80.5622 5.92603ZM79.0451 13.6297C78.4382 14.2964 77.6796 14.6668 76.6934 14.6668C75.7073 14.6668 74.9487 14.3705 74.3418 13.6297C73.7349 12.889 73.3556 11.7779 73.3556 10.6668C73.3556 9.55566 73.6591 8.44455 74.3418 7.70381C74.9487 7.03714 75.7073 6.66677 76.6934 6.66677C77.6796 6.66677 78.4382 6.96306 79.0451 7.70381C79.6519 8.44455 80.0312 9.55566 80.0312 10.6668C80.0312 11.7779 79.7278 12.8149 79.0451 13.6297Z" fill="white"/>
<path d="M98.9201 21.7776V15.2591C99.6028 16.0739 100.665 16.8147 102.258 16.8147C103.775 16.8147 104.989 16.2962 105.975 15.3332C107.189 14.2221 107.72 12.5184 107.72 10.7406C107.72 8.88873 107.113 7.2591 105.975 6.14799C104.989 5.18502 103.775 4.6665 102.258 4.6665C100.741 4.6665 99.6028 5.40725 98.9201 6.22206H98.8443V4.81465H96.4926V10.6665V21.7776H98.9201ZM99.8304 7.70355C100.437 7.03688 101.272 6.81466 102.106 6.81466C102.941 6.81466 103.699 7.11095 104.306 7.77762C104.913 8.44429 105.292 9.5554 105.292 10.6665C105.292 11.7776 104.989 12.8887 104.306 13.5554C103.699 14.2221 102.941 14.5184 102.106 14.5184C101.272 14.5184 100.437 14.2961 99.8304 13.6295C99.0718 12.8147 98.8443 11.8517 98.8443 10.6665C98.7684 9.40725 99.0718 8.51836 99.8304 7.70355Z" fill="white"/>
<path d="M59.2459 14.1482C58.4873 14.5926 57.4253 14.7408 56.5149 14.7408C55.1495 14.7408 53.7082 14.2963 52.5703 13.0371C51.5841 12 51.129 10.5926 51.129 8.81483C51.129 6.8889 51.8875 5.18519 52.722 4.22223C53.7082 3.11112 55.0736 2.5926 56.5908 2.5926C57.8046 2.5926 59.0183 3.03704 60.1562 3.77778L61.5216 1.62963C60.0045 0.518519 58.2597 0 56.5149 0C54.1633 0 51.9634 0.814816 50.4462 2.51852C49.0808 4.00001 48.1705 6.22223 48.1705 8.74076C48.1705 11.1852 48.929 13.4074 50.2945 14.8148C52.0393 16.6667 54.2392 17.4074 56.3632 17.4074C58.639 17.4074 60.7631 16.5926 61.6734 15.7037V8.66668H59.0942V14.1482H59.2459Z" fill="white"/>
<path d="M71.6109 4.88899C71.0799 4.66676 70.5489 4.51862 69.942 4.51862C68.5765 4.51862 67.4386 5.18528 66.7559 6.0001H66.6801V4.81491H64.3284V16.5186H66.7559V10.2964C66.7559 8.88899 67.0593 8.0001 67.6662 7.48158C68.1214 7.03714 68.8041 6.81492 69.5627 6.81492C69.942 6.81492 70.2454 6.88899 70.5489 7.03714L71.6109 4.88899Z" fill="white"/>
</svg>
