<svg width="193" height="42" viewBox="0 0 193 42" fill="none" xmlns="http://www.w3.org/2000/svg">
<path d="M189.437 18.2621C190.688 16.5638 191.313 14.0048 191.313 10.5851C191.313 7.56708 190.693 5.21463 189.454 3.52774C191.818 4.93922 193 7.35479 193 10.7745C193 14.1482 191.812 16.6441 189.437 18.2621ZM175.563 3.51053C174.301 5.46135 173.67 7.95725 173.67 10.9982C173.67 13.7523 174.272 16.1392 175.477 18.1589C173.159 16.6326 172 14.1884 172 10.8261C172 7.372 173.188 4.93348 175.563 3.51053ZM188.439 10.8949C188.439 5.39823 186.442 2.64988 182.448 2.64988C178.535 2.64988 176.579 5.46709 176.579 11.1015C176.579 16.4031 178.558 19.0539 182.517 19.0539C186.465 19.0539 188.439 16.3343 188.439 10.8949ZM190.057 10.8777C190.057 12.9892 189.735 14.7736 189.093 16.231C188.462 17.6769 187.572 18.7441 186.425 19.4326C185.3 20.1326 183.986 20.4826 182.483 20.4826C180.096 20.4826 178.248 19.6277 176.94 17.9179C175.632 16.2081 174.978 13.8556 174.978 10.8605C174.978 7.75069 175.643 5.36381 176.975 3.69987C178.306 2.05889 180.13 1.2384 182.448 1.2384C184.801 1.2384 186.66 2.05889 188.025 3.69987C189.38 5.32938 190.057 7.722 190.057 10.8777Z" fill="#0077B5"/>
<path d="M155.131 4.31952C153.823 6.00641 153.169 8.24985 153.169 11.0498C153.169 14.3318 153.978 16.799 155.596 18.4515C154.368 17.9351 153.393 16.9998 152.67 15.6457C151.947 14.3031 151.585 12.7884 151.585 11.1015C151.585 9.94247 151.775 8.87525 152.153 7.89985C152.509 6.93591 152.934 6.18428 153.427 5.64493C153.886 5.12854 154.454 4.68674 155.131 4.31952ZM169.453 16.2998H169.797L169.246 19.2088C168.179 19.622 167.152 19.9261 166.165 20.1211C165.178 20.3162 164.225 20.4138 163.307 20.4138C160.53 20.4138 158.356 19.6047 156.784 17.9867C155.212 16.3802 154.425 14.0449 154.425 10.981C154.425 7.92853 155.269 5.59329 156.956 3.97526C158.631 2.36871 160.846 1.56543 163.6 1.56543C165.597 1.56543 167.616 1.9269 169.659 2.64985C169.567 4.09575 169.521 4.95067 169.521 5.2146C169.521 5.45559 169.527 5.69083 169.539 5.92034V6.33346C169.539 6.93018 169.51 7.49821 169.453 8.03755H169.16C168.448 4.57198 166.463 2.8392 163.204 2.8392C161.001 2.8392 159.245 3.55641 157.937 4.99083C156.629 6.41378 155.975 8.46788 155.975 11.1531C155.975 13.5056 156.577 15.4162 157.782 16.8851C158.975 18.3539 160.777 19.0884 163.187 19.0884C164.518 19.0884 165.734 18.8244 166.836 18.2966C167.926 17.7916 168.798 17.1261 169.453 16.2998Z" fill="#0077B5"/>
<path d="M145.526 20.0352V1.89259C146.949 1.89259 148.212 1.82374 149.313 1.68604V1.99587C148.636 2.1221 148.074 2.48931 147.626 3.09751C147.167 3.72865 146.938 5.03111 146.938 7.00488V15.2155C146.938 16.9827 147.179 18.1704 147.661 18.7786C148.143 19.3868 148.694 19.7712 149.313 19.9319V20.2417C148.235 20.104 146.972 20.0352 145.526 20.0352ZM144.235 1.89259V20.0352C143.409 20.0352 142.153 20.104 140.466 20.2417V19.9319C141.349 19.7024 141.963 19.2032 142.307 18.4344C142.652 17.677 142.824 16.3057 142.824 14.3204V6.62619C142.824 5.13439 142.646 4.03849 142.29 3.33849C141.935 2.64997 141.326 2.20243 140.466 1.99587V1.68604C141.866 1.80079 143.122 1.86964 144.235 1.89259Z" fill="#0077B5"/>
<path d="M134.355 12.0139C135.606 10.7286 136.231 9.19094 136.231 7.40078C136.231 5.51882 135.606 3.88357 134.355 2.49505C136.662 3.42456 137.815 5.00816 137.815 7.24586C137.815 9.43766 136.662 11.027 134.355 12.0139ZM123.889 1.89259V20.0352H123.321C122.587 20.0352 121.497 20.104 120.051 20.2417V19.9319C120.648 19.8631 121.199 19.5245 121.703 18.9163C122.208 18.3081 122.461 17.0401 122.461 15.1122V6.72947C122.461 5.13439 122.283 4.00406 121.927 3.33849C121.571 2.67292 120.946 2.22538 120.051 1.99587V1.68604C121.577 1.80079 122.857 1.86964 123.889 1.89259ZM126.54 7.21144V10.9639C127.332 11.2967 128.181 11.4631 129.088 11.4631C130.545 11.4631 131.635 11.0614 132.358 10.2582C133.081 9.4434 133.443 8.43356 133.443 7.22865C133.443 5.97783 133.081 4.93931 132.358 4.11308C131.635 3.28685 130.505 2.87374 128.967 2.87374C128.118 2.87374 127.498 3.00571 127.108 3.26964C126.73 3.54505 126.54 4.85898 126.54 7.21144ZM126.403 20.0352H125.146V1.89259C125.433 1.89259 125.657 1.88685 125.817 1.87538C126.471 1.85243 127.103 1.81226 127.711 1.75489C128.112 1.70899 128.554 1.68604 129.036 1.68604C131.079 1.68604 132.582 2.21964 133.546 3.28685C134.498 4.36554 134.975 5.70816 134.975 7.31471C134.975 8.9557 134.453 10.2639 133.408 11.2393C132.364 12.2377 131.004 12.7368 129.329 12.7368C128.399 12.7368 127.47 12.5762 126.54 12.2549V15.3188C126.54 16.8221 126.753 17.9295 127.177 18.6409C127.59 19.3753 128.273 19.8057 129.226 19.9319V20.2417C128.744 20.1729 128.147 20.1213 127.435 20.0868L126.403 20.0352Z" fill="#0077B5"/>
<path d="M114.749 19.5532C115.805 18.4401 116.333 17.0172 116.333 15.2844C116.333 13.4254 115.782 11.9221 114.68 10.7745C116.861 11.5663 117.951 13.0237 117.951 15.1467C117.951 16.1909 117.647 17.1204 117.039 17.9352C116.43 18.7499 115.667 19.2893 114.749 19.5532ZM113.889 9.81061C114.589 8.89258 114.939 7.80242 114.939 6.54013C114.939 5.54177 114.744 4.64669 114.353 3.85488C113.952 3.04013 113.487 2.49505 112.959 2.21964C114.095 2.46062 114.967 2.94833 115.576 3.68275C116.184 4.42865 116.488 5.25488 116.488 6.16144C116.488 6.96471 116.235 7.72209 115.73 8.43356C115.226 9.12209 114.612 9.5811 113.889 9.81061ZM104.68 1.89259V20.0352C103.681 20.0696 102.476 20.1385 101.065 20.2417V19.9319C102.534 19.5303 103.268 17.9754 103.268 15.2672V6.29914C103.268 3.91226 102.534 2.47784 101.065 1.99587V1.68604C102.258 1.80079 103.463 1.86964 104.68 1.89259ZM109.086 11.2737H107.365V14.3721C107.365 16.5409 107.6 17.9122 108.071 18.486C108.472 18.7958 109.075 18.9508 109.878 18.9508C111.221 18.9508 112.179 18.5606 112.753 17.7803C113.303 16.9999 113.579 16.0877 113.579 15.0434C113.579 14.2057 113.401 13.4885 113.045 12.8918C112.678 12.2836 112.219 11.859 111.668 11.618C111.083 11.3885 110.222 11.2737 109.086 11.2737ZM107.365 6.59176V10.0516H108.69C109.792 10.0516 110.641 9.75323 111.238 9.15651C111.835 8.55979 112.133 7.69914 112.133 6.57455C112.133 5.41554 111.812 4.53193 111.169 3.92374C110.526 3.32702 109.758 3.02866 108.862 3.02866C108.369 3.02866 107.973 3.14915 107.675 3.39013C107.468 4.0098 107.365 5.07701 107.365 6.59176ZM105.953 20.0352V1.89259L108.897 1.68604C110.354 1.68604 111.513 2.13931 112.374 3.04587C113.223 3.9639 113.648 5.12865 113.648 6.54013C113.648 8.30734 112.879 9.5811 111.341 10.3614C113.82 10.9237 115.059 12.536 115.059 15.1983C115.059 16.5409 114.652 17.7172 113.837 18.727C113.011 19.7368 111.68 20.2417 109.844 20.2417C109.167 20.2417 108.432 20.2016 107.64 20.1213C106.929 20.0639 106.367 20.0352 105.953 20.0352Z" fill="#0077B5"/>
<path d="M85.5387 1.89259H86.1068V20.0352H84.9707C84.5691 20.0352 83.7199 20.104 82.4232 20.2417V19.9319C83.0428 19.7712 83.5133 19.4786 83.8346 19.054C84.1674 18.618 84.3912 18.1188 84.5059 17.5565C84.6322 16.9598 84.6953 15.6975 84.6953 13.7696V6.55734C84.6953 4.89341 84.4715 3.75161 84.024 3.13193C83.5764 2.51226 83.0428 2.13358 82.4232 1.99587V1.68604C83.1232 1.73194 84.1617 1.80079 85.5387 1.89259ZM94.2313 20.0352H87.3461V1.89259H92.3551C93.2961 1.89259 95.0748 1.82374 97.6912 1.68604C97.6682 2.0303 97.6567 2.28849 97.6567 2.46062C97.6567 2.69013 97.6854 3.22374 97.7428 4.06144C97.7772 4.62374 97.7944 4.92783 97.7944 4.97373V5.40406H97.5018C97.0887 4.41718 96.6182 3.78029 96.0903 3.49341C95.5625 3.218 94.5699 3.0803 93.1125 3.0803H90.3756C89.9395 3.0803 89.5379 3.10898 89.1707 3.16636C88.9641 3.55652 88.8436 4.48603 88.8092 5.95488L88.7748 7.12537V9.9311H92.4928C93.8928 9.9311 94.8223 9.81061 95.2813 9.56963C95.7403 9.32865 96.1076 8.75488 96.383 7.84832H96.7617C96.6699 8.8811 96.624 9.77619 96.624 10.5336C96.624 11.0155 96.6584 11.6467 96.7272 12.427C96.7502 12.6565 96.7789 13.1098 96.8133 13.7868H96.4346C96.3313 12.777 96.0272 12.0827 95.5223 11.7041C95.0059 11.3254 94.1969 11.136 93.0953 11.136H88.7748V14.8885C88.7748 16.3344 88.8551 17.6024 89.0158 18.6926C89.4977 18.7614 90.0141 18.7958 90.5649 18.7958H93.1813C94.6043 18.7958 95.6772 18.6352 96.4002 18.3139C97.1576 17.9811 97.9035 17.2409 98.6379 16.0934H98.9821C98.8559 16.6213 98.6666 17.2295 98.4141 17.918C98.1043 18.8131 97.8805 19.5876 97.7428 20.2417C96.4346 20.104 95.2641 20.0352 94.2313 20.0352Z" fill="#0077B5"/>
<path d="M64.8658 1.89259L72.0609 19.0196L71.5273 20.3622H71.1658L66.7248 9.84504L63.4027 17.4704L56.5347 1.89259C56.6035 1.88112 57.1773 1.85817 58.256 1.82374L59.0134 1.7721L60.115 1.68604V1.99587C59.392 2.28276 59.0306 2.7303 59.0306 3.33849C59.0306 3.94669 59.3117 4.88767 59.874 6.16144L63.4027 14.1827L66.0363 8.20979L64.9519 5.62783C64.4699 4.46882 64.0052 3.64259 63.5576 3.14915C63.1215 2.65571 62.4732 2.27128 61.6125 1.99587V1.68604C62.7486 1.80079 63.833 1.86964 64.8658 1.89259ZM55.106 1.89259L62.697 19.0368L62.0945 20.3622H61.8019L55.3642 5.79996C54.3658 3.55079 53.224 2.28276 51.9388 1.99587V1.68604C52.547 1.77784 53.6027 1.84669 55.106 1.89259ZM69.5133 6.31636L72.7322 14.0278L75.4519 7.40078C76.0601 5.92045 76.3642 4.77865 76.3642 3.97538C76.3642 2.90816 75.8592 2.24833 74.8494 1.99587V1.68604C76.1232 1.82374 77.0527 1.89259 77.6379 1.89259C78.6707 1.89259 79.6748 1.82374 80.6502 1.68604V1.99587C79.8469 2.45489 79.21 3.00571 78.7396 3.64833C78.2461 4.32538 77.6322 5.5475 76.8978 7.31471L72.7322 17.4188L66.2256 1.89259C67.6256 1.83522 68.8478 1.76636 69.892 1.68604V1.99587C69.1117 2.2598 68.7215 2.74177 68.7215 3.44177C68.7215 4.09587 68.9855 5.05406 69.5133 6.31636Z" fill="#0077B5"/>
<path d="M171.771 40.7408H165.309V26.0306C165.942 26.012 166.649 25.9748 167.43 25.919C168.156 25.8818 168.491 25.8632 168.435 25.8632V26.1144C167.719 26.3005 167.212 26.668 166.914 27.2169C166.616 27.7845 166.467 28.6266 166.467 29.7431V35.8142C166.467 36.726 166.514 37.5401 166.607 38.2566C166.691 39.0102 166.788 39.4429 166.9 39.5545C167.002 39.6662 167.272 39.722 167.709 39.722H170.64C171.673 39.722 172.529 39.5592 173.208 39.2335C173.887 38.9079 174.483 38.2659 174.995 37.3075H175.274C175.209 37.7541 174.999 38.4613 174.646 39.4289C174.413 40.043 174.264 40.5362 174.199 40.9083C173.446 40.7967 172.636 40.7408 171.771 40.7408ZM161.359 25.8632L164.304 26.0306V40.7408H163.439C162.908 40.7408 162.215 40.7967 161.359 40.9083V40.6571C162.048 40.3873 162.518 39.9546 162.769 39.3591C163.02 38.7544 163.146 37.7867 163.146 36.4562V29.785C163.146 28.3614 162.959 27.4216 162.587 26.9657C162.206 26.5005 161.796 26.2167 161.359 26.1144V25.8632Z" fill="#862A3F"/>
<path d="M157.228 40.7408L150.18 26.0306H151.548C151.734 26.5145 151.994 27.1239 152.329 27.8589C152.701 28.6498 152.911 29.1197 152.957 29.2686C153.004 29.3523 153.046 29.45 153.083 29.5616L156.363 36.3585C157.507 38.7218 158.726 40.1547 160.019 40.6571V40.9083C158.754 40.7967 157.823 40.7408 157.228 40.7408ZM147.263 33.7207H151.478L149.454 29.4779L147.263 33.7207ZM153.222 37.3634L151.98 34.7674H146.719L145.393 37.3634C145.393 37.3634 145.37 37.4238 145.323 37.5448C145.314 37.5541 145.244 37.689 145.114 37.9495C144.918 38.3403 144.821 38.7404 144.821 39.1498C144.821 39.8569 145.211 40.3594 145.993 40.6571V40.9083C145.835 40.9083 145.56 40.8851 145.169 40.8385C144.621 40.7734 144.127 40.7408 143.69 40.7408C143.29 40.7408 142.797 40.7734 142.211 40.8385C141.811 40.8851 141.545 40.9083 141.415 40.9083V40.6571C142.439 40.1361 143.369 39.0614 144.206 37.4331L148.84 28.4172C148.486 27.7008 147.998 27.1472 147.375 26.7564C146.761 26.3656 146.039 26.1516 145.211 26.1144V25.8632H145.7C146.137 25.8632 146.737 25.8911 147.5 25.9469C148.3 26.0027 148.821 26.0306 149.063 26.0306L156.111 40.7408C155.209 40.7595 154.125 40.8153 152.86 40.9083V40.6571C153.567 40.5362 153.92 40.1547 153.92 39.5127C153.92 39.0381 153.688 38.3217 153.222 37.3634Z" fill="#862A3F"/>
<path d="M134.925 40.7408H134.563V26.0306H139.587C140.508 26.0306 141.415 25.9748 142.308 25.8632C142.308 26.0399 142.294 26.3609 142.267 26.8262C142.239 27.2542 142.225 27.7892 142.225 28.4312C142.225 28.8406 142.201 29.2546 142.155 29.6733H141.82C141.801 28.9103 141.611 28.2776 141.248 27.7752C140.876 27.2635 140.089 27.0076 138.889 27.0076H135.721V37.0005C135.721 38.1449 135.884 39.0056 136.209 39.5825C136.535 40.1593 137.037 40.5175 137.717 40.6571V40.9083C136.07 40.7967 135.139 40.7408 134.925 40.7408ZM128.924 26.0306H133.53V40.7408H133.111C132.506 40.7408 131.604 40.7967 130.403 40.9083V40.6571C131.176 40.4617 131.706 40.0663 131.995 39.4708C132.274 38.8846 132.413 37.9077 132.413 36.5399V27.0076H128.854C127.952 27.0076 127.314 27.1937 126.942 27.5659C126.57 27.938 126.258 28.6405 126.007 29.6733H125.686C125.677 29.5523 125.672 29.4221 125.672 29.2825C125.672 29.0964 125.691 28.8592 125.728 28.5707C125.84 27.5752 125.895 26.6726 125.895 25.8632C126.389 25.9283 127.003 25.9702 127.738 25.9888L128.924 26.0306Z" fill="#862A3F"/>
<path d="M120.815 40.7408V26.0306C121.969 26.0306 122.992 25.9748 123.886 25.8632V26.1144C123.337 26.2167 122.881 26.5145 122.518 27.0076C122.146 27.5193 121.96 28.5754 121.96 30.1757V36.833C121.96 38.2659 122.155 39.2289 122.546 39.722C122.937 40.2152 123.383 40.5268 123.886 40.6571V40.9083C123.011 40.7967 121.988 40.7408 120.815 40.7408ZM119.769 26.0306V40.7408C119.099 40.7408 118.08 40.7967 116.712 40.9083V40.6571C117.428 40.471 117.926 40.0663 118.205 39.4429C118.485 38.8288 118.624 37.7169 118.624 36.1073V29.8687C118.624 28.6591 118.48 27.7706 118.191 27.203C117.903 26.6447 117.41 26.2819 116.712 26.1144V25.8632C117.847 25.9562 118.866 26.012 119.769 26.0306Z" fill="#862A3F"/>
<path d="M112.441 39.7779V33.0509C112.888 33.0323 113.297 33.0043 113.67 32.9671C114.274 32.9113 114.67 32.8834 114.856 32.8834V33.1346C114.009 33.4789 113.586 34.3907 113.586 35.8701V39.4151C113.521 39.4244 113.339 39.4802 113.042 39.5825C112.893 39.6198 112.772 39.657 112.679 39.6942C112.586 39.7314 112.507 39.7593 112.441 39.7779ZM102.267 27.3008C101.132 28.9104 100.564 30.9481 100.564 33.4137C100.564 33.9906 100.629 34.814 100.76 35.884C100.89 36.9354 101.29 38.0287 101.96 39.1638C100.155 37.7496 99.2524 35.8236 99.2524 33.3858C99.2524 31.8878 99.5548 30.6271 100.16 29.6036C100.755 28.5987 101.458 27.8311 102.267 27.3008ZM111.409 33.0509V40.1129C109.929 40.7177 108.655 41.0201 107.585 41.0201C105.779 41.0201 104.323 40.4246 103.216 39.2336C102.667 38.6288 102.253 37.8659 101.974 36.9447C101.704 36.0236 101.569 34.9536 101.569 33.7347C101.569 28.4126 103.798 25.7516 108.254 25.7516C109.892 25.7516 111.478 26.0261 113.014 26.575C113.014 27.4403 113.028 28.1056 113.055 28.5708C113.083 28.9709 113.097 29.4594 113.097 30.0362H112.818C112.595 29.0314 112.069 28.2405 111.241 27.6636C110.394 27.0868 109.385 26.7983 108.213 26.7983C104.593 26.7983 102.783 28.9709 102.783 33.316C102.783 37.7263 104.323 39.9314 107.403 39.9314C108.631 39.9314 109.501 39.6384 110.013 39.0522C110.18 38.7451 110.264 38.1776 110.264 37.3495V35.4654C110.264 34.1162 109.771 33.3393 108.785 33.1346V32.8834C109.129 32.902 109.608 32.9299 110.222 32.9671C110.697 33.0043 111.092 33.0323 111.409 33.0509Z" fill="#862A3F"/>
<path d="M94.0187 40.7408V26.0306C95.1724 26.0306 96.1959 25.9748 97.0891 25.8632V26.1144C96.5402 26.2167 96.0843 26.5145 95.7214 27.0076C95.3492 27.5193 95.1631 28.5754 95.1631 30.1757V36.833C95.1631 38.2659 95.3585 39.2289 95.7493 39.722C96.1401 40.2152 96.5867 40.5268 97.0891 40.6571V40.9083C96.2145 40.7967 95.191 40.7408 94.0187 40.7408ZM92.972 26.0306V40.7408C92.302 40.7408 91.2832 40.7967 89.9155 40.9083V40.6571C90.6319 40.471 91.1297 40.0663 91.4088 39.4429C91.6879 38.8288 91.8275 37.7169 91.8275 36.1073V29.8687C91.8275 28.6591 91.6833 27.7706 91.3949 27.203C91.1064 26.6447 90.6133 26.2819 89.9155 26.1144V25.8632C91.0506 25.9562 92.0694 26.012 92.972 26.0306Z" fill="#862A3F"/>
<path d="M83.9839 39.6522C85.5285 38.4706 86.3007 36.4236 86.3007 33.5114C86.3007 30.6642 85.668 28.6545 84.4026 27.4821C85.4633 28.1799 86.2635 29.0313 86.8031 30.0362C87.3428 31.041 87.6126 32.1855 87.6126 33.4695C87.6126 36.1491 86.4031 38.2101 83.9839 39.6522ZM73.4886 26.0306V40.7408C72.828 40.7408 71.7905 40.7967 70.3763 40.9083V40.6571C71.0927 40.4617 71.5998 40.043 71.8975 39.401C72.186 38.7869 72.3302 37.5122 72.3302 35.5769V29.8129C72.3302 28.6312 72.186 27.7706 71.8975 27.2309C71.6091 26.7006 71.102 26.3284 70.3763 26.1144V25.8632C71.5859 25.9562 72.6233 26.012 73.4886 26.0306ZM75.8612 27.3286C75.7123 27.7473 75.6379 29.2127 75.6379 31.7249V35.1303C75.6379 37.168 75.7728 38.6567 76.0426 39.5964C76.7591 39.8197 77.5779 39.9314 78.499 39.9314C80.2203 39.9314 81.5741 39.3871 82.5604 38.2985C83.5559 37.2005 84.0537 35.5862 84.0537 33.4555C84.0537 31.3713 83.5606 29.7524 82.5743 28.5986C81.588 27.4449 80.1366 26.868 78.2199 26.868C77.2243 26.868 76.4381 27.0216 75.8612 27.3286ZM75.3309 40.7408H74.4795V26.0306C75.7635 26.0027 76.6614 25.9702 77.1731 25.9329C77.9454 25.8864 78.4757 25.8632 78.7642 25.8632C80.1598 25.8632 81.3508 26.1842 82.3371 26.8262C83.314 27.4775 84.0491 28.3288 84.5422 29.3802C85.026 30.413 85.2679 31.7249 85.2679 33.316C85.2679 35.7351 84.6864 37.6053 83.5234 38.9265C82.351 40.2477 80.7646 40.9083 78.7642 40.9083C77.8337 40.9083 76.7823 40.8572 75.61 40.7548C75.5635 40.7455 75.4704 40.7408 75.3309 40.7408Z" fill="#862A3F"/>
<path fill-rule="evenodd" clip-rule="evenodd" d="M37.4989 22.2901L34.9262 18.8898C34.9262 18.8898 36.9921 11.1388 36.6925 10.1141C36.3326 7.75124 35.3966 6.14296 33.8899 5.27152C29.7294 2.86933 20.5456 5.68757 10.5985 14.4356L10.4621 14.471C10.4621 14.471 20.2734 3.15102 29.1876 1.08667C29.1869 1.08849 46.5684 -1.79705 37.4989 22.2901Z" fill="url(#paint0_linear_123_3104)"/>
<path fill-rule="evenodd" clip-rule="evenodd" d="M21.3735 3.60442L17.9632 6.1678C17.9632 6.1678 10.2308 4.16225 9.16177 4.40788C6.79187 4.76641 5.17881 5.69832 4.30579 7.20043C1.89587 11.3459 4.72297 20.4968 13.4974 30.408L13.5328 30.5444C13.5328 30.5444 2.17892 20.7683 0.108206 11.8859C0.107978 11.8866 -2.78597 -5.43324 21.3735 3.60442Z" fill="url(#paint1_linear_123_3104)"/>
<path fill-rule="evenodd" clip-rule="evenodd" d="M18.9222 38.6602L22.2579 36.0045C22.2579 36.0045 30.0578 37.8786 31.0739 37.5537C33.4272 37.1356 35.012 36.1611 35.8448 34.6327C38.1438 30.4139 35.0998 21.3026 26.1092 11.5743L26.0703 11.4379C26.0703 11.4379 37.6288 20.9671 39.9126 29.8276C39.9126 29.8276 43.226 47.1336 18.9222 38.6602Z" fill="url(#paint2_linear_123_3104)"/>
<path fill-rule="evenodd" clip-rule="evenodd" d="M2.49326 20.371L5.42268 23.4727C5.42268 23.4727 4.24796 31.43 4.65992 32.4158C5.28172 34.7307 6.38778 36.2294 7.97924 36.9285C12.3687 38.8585 21.1451 35.0244 30.0111 25.1951L30.143 25.1444C30.143 25.1444 21.7003 37.5221 13.1058 40.5747C13.1053 40.5747 -3.78117 45.3907 2.49326 20.371Z" fill="url(#paint3_linear_123_3104)"/>
<circle cx="20.4615" cy="20.9866" r="3.18291" fill="url(#paint4_linear_123_3104)"/>
<defs>
<linearGradient id="paint0_linear_123_3104" x1="25.236" y1="2.23017" x2="37.1719" y2="22.3507" gradientUnits="userSpaceOnUse">
<stop stop-color="#02EFFB"/>
<stop offset="0.457975" stop-color="#1491F9"/>
</linearGradient>
<linearGradient id="paint1_linear_123_3104" x1="20.5753" y1="3.0255" x2="1.47778" y2="16.5529" gradientUnits="userSpaceOnUse">
<stop offset="0.515483" stop-color="#1491F9"/>
<stop offset="1" stop-color="#02EFFB"/>
</linearGradient>
<linearGradient id="paint2_linear_123_3104" x1="40.0135" y1="20.3046" x2="18.8699" y2="38.9473" gradientUnits="userSpaceOnUse">
<stop stop-color="#02EFFB"/>
<stop offset="0.529606" stop-color="#1491F9"/>
</linearGradient>
<linearGradient id="paint3_linear_123_3104" x1="1.93239" y1="20.3046" x2="18.4153" y2="40.3115" gradientUnits="userSpaceOnUse">
<stop offset="0.474988" stop-color="#1491F9"/>
<stop offset="1" stop-color="#02EFFB"/>
</linearGradient>
<linearGradient id="paint4_linear_123_3104" x1="23.6445" y1="20.9866" x2="17.2786" y2="20.9866" gradientUnits="userSpaceOnUse">
<stop stop-color="#1491F9"/>
<stop offset="1" stop-color="#02EFFB"/>
</linearGradient>
</defs>
</svg>
