<svg width="21" height="21" viewBox="0 0 21 21" fill="none" xmlns="http://www.w3.org/2000/svg">
<path d="M11.8834 13.21C10.7339 14.0273 9.31927 14.3829 7.9199 14.2063C6.52053 14.0298 5.23856 13.3339 4.32805 12.2567C3.41755 11.1795 2.94496 9.79956 3.00395 8.39033C3.06294 6.9811 3.6492 5.64546 4.64655 4.64811C5.6439 3.65076 6.97954 3.0645 8.38877 3.00551C9.798 2.94652 11.178 3.4191 12.2552 4.32961C13.3324 5.24012 14.0282 6.52209 14.2048 7.92146C14.3813 9.32083 14.0257 10.7355 13.2084 11.885L17.7247 16.4C17.8168 16.4858 17.8907 16.5893 17.9419 16.7043C17.9932 16.8193 18.0207 16.9435 18.0229 17.0693C18.0252 17.1952 18.002 17.3203 17.9548 17.437C17.9077 17.5537 17.8375 17.6598 17.7485 17.7488C17.6595 17.8378 17.5534 17.908 17.4367 17.9552C17.32 18.0023 17.1949 18.0255 17.069 18.0232C16.9432 18.021 16.819 17.9935 16.704 17.9422C16.589 17.891 16.4855 17.8171 16.3997 17.725L11.8834 13.21ZM12.3747 8.625C12.3747 7.63044 11.9796 6.67661 11.2763 5.97335C10.5731 5.27009 9.61925 4.875 8.62469 4.875C7.63013 4.875 6.6763 5.27009 5.97304 5.97335C5.26978 6.67661 4.87469 7.63044 4.87469 8.625C4.87469 9.61956 5.26978 10.5734 5.97304 11.2766C6.6763 11.9799 7.63013 12.375 8.62469 12.375C9.61925 12.375 10.5731 11.9799 11.2763 11.2766C11.9796 10.5734 12.3747 9.61956 12.3747 8.625Z" fill="white"/>
</svg>
