<svg width="121" height="120" viewBox="0 0 121 120" fill="none" xmlns="http://www.w3.org/2000/svg">
<path d="M60.5 10C32.95 10 10.5 32.45 10.5 60C10.5 87.55 32.95 110 60.5 110C88.05 110 110.5 87.55 110.5 60C110.5 32.45 88.05 10 60.5 10ZM84.4 48.5L56.05 76.85C55.35 77.55 54.4 77.95 53.4 77.95C52.4 77.95 51.45 77.55 50.75 76.85L36.6 62.7C35.15 61.25 35.15 58.85 36.6 57.4C38.05 55.95 40.45 55.95 41.9 57.4L53.4 68.9L79.1 43.2C80.55 41.75 82.95 41.75 84.4 43.2C85.85 44.65 85.85 47 84.4 48.5Z" fill="#0077B5"/>
</svg>
